# xmcd
#
# Track frame offsets: 
#        150
#        21935
#        34070
#        49862
#        64782
#        83182
#        100762
#        111807
#        126057
#        143917
#        160672
#        170870
#        192075
#        206027
#
# Disc length: 2958 seconds
#
# Revision: 1
# Processed by: cddbd v1.5.2PL0 Copyright (c) Steve Scherf et al.
# Submitted via: ExactAudioCopy v1.0b3
#
DISCID=c10b8c0e
DTITLE=Built For Comfort Blues Band - Keep Cool
DYEAR=1993
DGENRE=Blues
TTITLE0=Cold Hearted Woman
TTITLE1=Man of Motion
TTITLE2=Keep Cool
TTITLE3=I'm Her Man
TTITLE4=Ain't No Thing
TTITLE5=Here I Am
TTITLE6=Strollin' With Bone
TTITLE7=Comeback Baby
TTITLE8=5 Years Runnin'
TTITLE9=Can't Stand to See Her Cryin'
TTITLE10=I Ain't Got You
TTITLE11=Matter of Time
TTITLE12=Blazz Jues
TTITLE13=Too Late
EXTD=ID3G:   0 YEAR: 1993
EXTT0=
EXTT1=
EXTT2=
EXTT3=
EXTT4=
EXTT5=
EXTT6=
EXTT7=
EXTT8=
EXTT9=
EXTT10=
EXTT11=
EXTT12=
EXTT13=
PLAYORDER=
